<?xml version="1.0" encoding="UTF-8" standalone="no"?><svg xmlns="http://www.w3.org/2000/svg" xmlns:xlink="http://www.w3.org/1999/xlink" fill="#000000" height="397.5" preserveAspectRatio="xMidYMid meet" version="1" viewBox="-0.0 -3.4 388.4 397.5" width="388.4" zoomAndPan="magnify"><g id="change1_1"><path d="M386.4,17.7c-1.6-2.6-4.3-5.3-7.5-5.7c-7.3-1.1-14.7-1.9-22.2-1.8c-7.4,0.1-14.8,0.9-22.1,2.1 c-13.7,2.3-27,6.9-39.3,13.2c-5.2,2.6-10.1,5.6-14.9,8.9c-15.5-14.7-34.9-25.5-55.5-30.8c-27.4-7-56.1-3.7-81.1,9.4 c-24.4,12.7-43.8,34.5-52.7,60.6c-5.8,17-6.5,35.8-1.8,53c-1.7,0.4-3.4,0.8-5.1,1.5c-4.6,1.8-8.2,4-12,7 c-11,8.8-16.1,23.5-16.3,37.3c-0.1,6.1,0.7,12.5,2.5,18.4c-9.4,0.5-19,3.3-26.7,8.4c-10.7,7-18.5,18.1-21.1,30.7 c-4.9,24.1,4.4,48.3,15.6,69.3c10.3,19.3,23.9,37.1,39.8,52.2c15.9,15.2,34.3,28,54.3,37.3c3.2,1.5,6.4,2.8,9.7,4.2 c2.8,1.2,7.2,0.2,9.6-1.3c2.6-1.5,5.1-4.5,5.7-7.5c0.7-3.2,0.6-6.8-1.3-9.6c-0.7-0.8-1.3-1.7-2-2.5c-1.4-1.4-3.1-2.4-5-3 c-14-6.1-27.2-13.9-39.3-23.1c-12.4-9.8-23.6-21-33.4-33.4c-9.3-12.3-17.1-25.6-23.2-39.7c-3-7.4-5.3-15-6.6-22.8 c-0.4-3.9-0.5-7.9-0.1-11.8c0.5-2.6,1.1-5.2,2.1-7.7c0.9-1.8,1.9-3.5,3-5.1c1.2-1.4,2.4-2.6,3.8-3.8c1.8-1.3,3.7-2.4,5.7-3.3 c2.7-1,5.4-1.7,8.2-2.2c3.3-0.3,6.7-0.3,10,0c2.3,0.4,4.7,1,6.9,1.7c10,11.6,22.9,20.5,35.5,29.1c4.4,3,11.6,1.9,15.1-2 c1.5-1.6,2.5-3.5,3.2-5.5c0.9-2.7,0.5-7.3-1.3-9.6c-7.8-10.4-16.4-19.6-27.2-27c-3.2-2.2-6.6-4.1-10.2-5.8c-2.1-2.9-4-6-5.5-9.3 c-1.2-3-2-6.2-2.6-9.4c-0.3-3.2-0.3-6.4,0-9.6c0.4-2.5,1.1-4.9,2-7.3c0.8-1.6,1.7-3.2,2.7-4.7c0.9-1.1,1.9-2.1,3-3 c1.1-0.7,2.2-1.4,3.4-2c1.2-0.4,2.5-0.8,3.8-1c1.5-0.1,2.9-0.1,4.4,0c2.8,4.1,6,7.9,9.7,11.4c5.1,4.9,11,9.2,17.3,12.3 c4.6,2.3,9.7,2.3,13.9-1c3.7-2.9,6.1-8.4,4.5-13.1c-2.6-7.3-6.5-13.8-11.9-19.3c-4.9-5-10.6-8.6-16.9-11.4c-0.5-0.9-0.9-1.9-1.4-2.8 c-1.8-4.7-3.1-9.5-3.9-14.4c-0.6-5.9-0.6-11.7,0-17.6c1-6.4,2.7-12.7,5.1-18.8c2.7-6,6.1-11.7,10-17c4.6-5.7,9.8-10.8,15.4-15.4 c6.3-4.7,13.1-8.7,20.3-11.8c7.2-2.9,14.7-4.9,22.3-6.1c7.6-0.9,15.2-0.8,22.8,0c8.5,1.3,16.8,3.6,24.8,6.8 c8.2,3.6,16,8.2,23.2,13.6c1.9,1.5,3.7,3.1,5.5,4.7c-9.5,9.7-17.4,20.9-23.3,33.1c-12.7,26.3-16.9,55.8-11.9,84.6 c2.5,14.1,7.2,28.5,16.6,39.5c4.9,5.7,12.1,10.4,19.5,11.8c9.4,1.8,18.6,0.1,27-4.4c14.8-7.9,22.7-23.8,27.2-39.2 c4-14,6-28.9,5.7-43.5c-0.2-14.7-2.6-29.6-7.2-43.5c-4.3-12.8-10.2-24.6-17.9-35.5c5.6-3.6,11.6-6.8,17.7-9.5 c9.3-3.8,19-6.4,28.9-7.9c9.5-1.1,19.1-1.1,28.6,0c0.1,0,0.1,0,0.2,0c3.4,0.5,6.5,0.6,9.6-1.3c2.6-1.5,5.1-4.5,5.7-7.5 C388.4,24.1,388.2,20.5,386.4,17.7z M296,151.6c-1.3,9.1-3.5,18.1-6.9,26.6c-1.4,3.1-3.1,6.1-5,8.9c-1.4,1.6-2.8,3.1-4.4,4.5 c-1.4,1-2.9,1.8-4.5,2.6c-1.3,0.5-2.6,0.8-4,1.1c-1,0.1-2,0.1-3,0c-0.8-0.2-1.7-0.4-2.5-0.7c-0.8-0.4-1.7-0.9-2.5-1.5 c-1.1-1-2.1-2-3.1-3.1c-1.9-2.6-3.4-5.4-4.7-8.4c-2.8-7.3-4.7-14.9-5.9-22.6c-1.2-9.8-1.2-19.7,0-29.6c1.5-10,4.1-19.8,7.9-29.1 c3.7-8.3,8.3-16.2,13.7-23.6c2.1-2.6,4.2-5.1,6.5-7.4c3.9,5.9,7.3,12.1,10.1,18.5c3.9,9.7,6.6,19.7,8.2,30 C297.4,129.2,297.4,140.5,296,151.6z" fill="#f4d94c"/></g><g id="change2_1"><path d="M40.5,150c1.6,3.1,2,6.3,1.3,9.6c-0.7,3.2-3.1,5.7-5.7,7.5c-2.7,1.7-6.6,2.1-9.6,1.3c-2.9-0.8-6.1-3-7.5-5.7 c-4.6-8.9-8.5-18.3-11.4-27.8c-5-16.3-7.6-33.6-7.5-50.6c0.1-17,2.7-34.3,8-50.5c2.2-6.7,8.5-10.3,15.4-8.7c3,0.7,6,3.2,7.5,5.7 c1.6,2.7,2.2,6.6,1.3,9.6c-2.9,8.8-4.9,17.8-6.2,27c0.1-1.1,0.3-2.2,0.4-3.3c-1.9,14-1.8,28.1,0,42.1c-0.1-1.1-0.3-2.2-0.4-3.3 c1.9,13.5,5.4,26.8,10.7,39.4c-0.4-1-0.8-2-1.3-3C37,142.9,38.7,146.5,40.5,150L40.5,150z" fill="#f4d94c"/></g><g id="change3_1"><path d="M69,94.3c0.2,3.3-1.5,6.5-3.7,8.8c-2.3,2.5-5.6,3.5-8.8,3.7c-3.1,0.1-6.7-1.5-8.8-3.7 c-2.4-2.4-3.5-5.5-3.7-8.8c-0.3-6-0.3-12,0.1-18.1c1.5-23.1,7.8-45.7,18.6-66.2c1.5-2.9,4.4-4.8,7.5-5.7c3.2-1,6.7-0.3,9.6,1.3 c2.7,1.4,4.9,4.6,5.7,7.5c0.9,3.3,0.3,6.7-1.3,9.6c-1.9,3.7-3.7,7.4-5.4,11.3c0.4-1,0.8-2,1.3-3c-5.2,12.3-8.7,25.3-10.5,38.6 c0.1-1.1,0.3-2.2,0.4-3.3C68.8,75.6,68.5,85,69,94.3L69,94.3z" fill="#f4d94c"/></g></svg>